<svg width="160" height="218" viewBox="0 0 160 218" fill="none" xmlns="http://www.w3.org/2000/svg">
<path fill-rule="evenodd" clip-rule="evenodd" d="M57.9674 2.79446C53.5725 7.20197 54.4887 15.5806 59.9014 20.4924C66.9796 26.917 65.8797 28.9777 55.3614 28.9777C42.4498 28.9777 39.9792 32.9149 40.9559 51.9414C41.6472 65.4257 41.1251 68.0416 37.5134 69.1859C30.4956 71.4115 25.4915 83.897 27.3021 94.6564C28.7913 103.486 28.5036 104.133 23.1054 104.133C9.79983 104.133 4.46453 115.981 4.35817 145.753C4.31949 156.478 3.28482 162.258 1.27834 162.934C-4.91032 165.024 12.9159 179.291 21.7057 179.286C23.4342 179.286 20.2263 176.991 14.5743 174.186C8.92472 171.381 4.30015 168.108 4.30015 166.912C4.30015 165.681 36.7229 164.743 79.2409 164.743C123.623 164.743 154.182 165.659 154.182 166.988C154.182 168.224 147.925 172.314 140.281 176.079C126.512 182.862 125.953 182.925 80.4496 182.925C40.3346 182.925 37.0444 183.197 54.4621 185.078C65.4325 186.261 74.406 188.242 74.406 189.481C74.406 195.634 68.9039 200.597 60.5928 201.937C55.5596 202.75 48.8536 205.237 45.6916 207.465L39.9429 211.516L45.6916 214.711C49.6151 216.891 61.6371 217.933 83.5464 217.994C111.161 218.067 115.868 217.521 117.18 214.091C119.068 209.155 112.967 204.391 99.8351 200.551C94.4926 198.987 89.3192 196.563 88.3426 195.166C83.8558 188.742 87.204 187.195 108.204 185.992C125.192 185.023 132.821 183.325 143.272 178.198C158.202 170.874 164.197 163.608 156.896 161.693C153.149 160.711 152.207 156.893 150.727 136.681C148.701 109.001 147.147 105.098 137.279 102.926C130.454 101.423 130.007 100.625 130.007 89.9337C130.007 76.8445 125.513 68.9871 116.767 66.7858C111.057 65.3482 110.668 64.2814 110.668 50.0237C110.668 32.2918 108.306 28.9777 95.6795 28.9777C85.0911 28.9777 84.7116 28.2698 91.4345 21.033C101.394 10.31 92.8946 -4.36957 80.5584 2.2514C75.7574 4.82851 73.6469 4.94245 71.4567 2.74597C67.7871 -0.93423 61.6637 -0.912412 57.9674 2.79446ZM72.4527 7.00317C75.344 11.6458 75.4117 11.6458 78.6535 7.00317C80.4569 4.42121 84.0806 2.30958 86.706 2.30958C97.0913 2.30958 94.6328 17.8328 83.0411 25.4502C77.2852 29.2323 76.4899 29.1668 68.551 24.2453C59.0722 18.3711 55.6733 11.0543 59.9981 5.82977C64.0255 0.961629 68.9813 1.42953 72.4527 7.00317ZM87.8567 7.86867C88.7656 10.2591 90.117 11.6046 90.8616 10.8579C91.6061 10.1136 90.864 8.15717 89.2105 6.51102C86.822 4.13513 86.5464 4.41394 87.8567 7.86867ZM102.876 35.1768C105.833 37.2521 108.25 39.9795 108.25 41.2378C108.25 44.8816 99.4701 43.8827 96.1389 39.8583C94.1324 37.4339 92.1622 36.9757 90.3225 38.5055C88.7366 39.8268 86.104 39.9334 84.2063 38.7552C82.0524 37.4218 78.5205 38.4327 74.2368 41.6087C68.1062 46.1544 67.0473 46.2514 60.3244 42.8863C55.4968 40.4716 52.2381 40.0571 50.6401 41.6596C49.3178 42.9857 46.9825 43.2936 45.4499 42.3457C43.4652 41.1141 43.8592 39.2934 46.823 36.0108C50.3597 32.0906 54.4549 31.4021 74.2416 31.4021C91.3837 31.4021 98.9189 32.3961 102.876 35.1768ZM97.5192 43.764C98.2589 44.9664 100.976 45.9483 103.558 45.9483C107.421 45.9483 108.25 47.6623 108.25 55.6458V65.3433H78.0322C61.4123 65.3433 46.9995 65.6148 46.0011 65.9494C45.0027 66.284 43.8592 62.0607 43.4603 56.5671C42.827 47.883 43.4579 46.3871 48.2952 45.1167C51.3533 44.3119 57.3099 44.9058 61.5283 46.4332C67.7097 48.6733 70.2456 48.5157 74.5849 45.6259C80.6164 41.6087 95.4499 40.4038 97.5192 43.764ZM56.2752 50.7971C57.0971 52.1305 58.2478 53.2214 58.8353 53.2214C59.4227 53.2214 59.9014 52.1305 59.9014 50.7971C59.9014 49.4636 58.7482 48.3727 57.3413 48.3727C55.9343 48.3727 55.4533 49.4636 56.2752 50.7971ZM120.744 74.3668C127.179 80.8254 125.071 84.1492 116.905 80.4181C112.29 78.3089 110.416 78.4834 108.137 81.2375C103.959 86.2875 92.8004 85.5408 87.685 79.8702C83.6503 75.3996 82.9444 75.3172 79.0499 78.8519C76.0934 81.5333 73.4656 82.0424 70.3762 80.5272C67.0594 78.9028 64.5985 79.7683 60.5928 83.9722C57.1165 87.6184 56.3767 89.587 58.4823 89.587C60.2664 89.587 62.9884 88.0621 64.5284 86.2002C66.0707 84.3383 69.472 83.3758 72.0901 84.0619C74.7082 84.748 78.6511 83.817 80.8558 81.9939C84.1314 79.281 85.0573 79.2592 85.93 81.8654C87.8712 87.6475 98.4717 89.9968 105.886 86.2875C114.56 81.9478 125.172 83.8098 125.172 89.6719C125.172 92.0744 125.832 95.7643 126.64 97.8736C127.943 101.277 123.541 101.709 87.5569 101.709C65.256 101.709 47.6111 102.313 48.346 103.052C49.0833 103.789 69.5856 104.732 93.9076 105.144C137.17 105.879 138.234 106.022 142.825 111.683C147.507 117.455 147.505 117.47 142.063 118.284C138.957 118.75 134.552 117.043 131.84 114.321C127.626 110.095 126.35 109.915 120.877 112.762C116.37 115.106 113.392 115.293 109.955 113.448C106.558 111.625 103.66 111.753 99.649 113.906C96.5812 115.552 92.2782 116.209 90.0856 115.365C87.8929 114.522 83.7712 115.467 80.9235 117.467C73.6445 122.58 67.7774 121.996 61.5984 115.545C55.1052 108.764 42.0147 108.487 37.2427 115.031C35.1661 117.882 32.2313 118.963 28.9242 118.095C26.0185 117.332 22.6099 118.214 21.0144 120.141C19.4744 122.003 16.779 123.528 15.0263 123.528C8.94406 123.528 8.90538 118.689 14.9393 112.638C19.7379 107.826 23.6735 106.478 33.8051 106.17C41.9784 105.922 43.8568 105.435 39.005 104.824C33.0097 104.068 31.141 102.485 30.1523 97.3329C28.5713 89.0755 28.755 88.9252 40.557 88.9252C49.9052 88.9252 50.1252 88.7579 45.2613 85.3395C41.5022 82.6994 39.4425 82.4667 37.4578 84.4571C33.8123 88.113 30.892 87.8657 30.892 83.9019C30.892 72.7595 50.3597 67.9786 93.0784 68.6356C112.638 68.9387 116.034 69.6417 120.744 74.3668ZM100.998 92.0114C99.0035 93.3036 98.4596 94.3606 99.7892 94.3606C101.119 94.3606 103.838 93.3036 105.833 92.0114C107.827 90.7192 108.371 89.6622 107.042 89.6622C105.712 89.6622 102.992 90.7192 100.998 92.0114ZM59.4179 116.74C63.9603 121.295 62.8192 123.967 57.5395 121.133C53.6426 119.041 53.0189 119.249 54.1672 122.248C55.6998 126.256 69.4744 125.463 82.2192 120.631C85.8526 119.254 90.3684 118.723 92.2589 119.448C94.1469 120.175 97.6643 119.324 100.074 117.559C103.024 115.395 106.256 115.033 109.979 116.454C113.179 117.673 117.966 117.62 121.36 116.325C125.593 114.711 127.981 115.021 129.988 117.443C131.511 119.286 135.947 121.494 139.844 122.352C146.078 123.727 146.944 124.983 147.053 132.811C147.12 137.706 147.766 146.346 148.486 152.015L149.796 162.318H78.257H6.71759V146.759C6.71759 127.029 7.90456 123.965 15.0167 125.327C18.1183 125.924 21.3915 125.216 22.2908 123.756C23.1901 122.297 26.4464 121.104 29.531 121.104C32.6133 121.104 36.4884 119.467 38.1444 117.467C41.7464 113.116 55.3396 112.65 59.4179 116.74ZM141.642 156.701C143.385 157.402 145.472 157.314 146.274 156.509C147.077 155.705 145.651 155.132 143.103 155.237C140.286 155.353 139.713 155.928 141.642 156.701ZM26.0571 174.668C26.0571 175.875 28.2328 176.865 30.892 176.865C33.5512 176.865 35.7269 176.445 35.7269 175.936C35.7269 175.424 33.5512 174.435 30.892 173.737C28.2328 173.041 26.0571 173.458 26.0571 174.668ZM84.0758 191.083C84.0758 193.571 86.4546 198.638 89.3603 202.345C93.5183 207.644 94.9374 208.297 96.0083 205.397C97.0357 202.623 98.7835 202.243 103.087 203.86C108.112 205.746 108.403 206.515 105.504 210.224C102.538 214.018 102.622 214.117 106.331 211.203C110.641 207.819 116.603 209.484 114.19 213.397C112.372 216.348 52.5209 216.265 47.8528 213.305C45.0317 211.516 46.267 210.195 53.645 207.104C60.5541 204.207 63.4768 203.911 64.7508 205.981C66.9748 209.589 76.8235 197.435 76.8235 191.083C76.8235 188.596 78.4552 186.562 80.4496 186.562C82.444 186.562 84.0758 188.596 84.0758 191.083Z" fill="#5A8CC1"/>
</svg>
