<svg width="159" height="161" viewBox="0 0 159 161" fill="none" xmlns="http://www.w3.org/2000/svg">
<path fill-rule="evenodd" clip-rule="evenodd" d="M80.0643 1.66824C76.7811 3.74076 73.464 7.31234 73.464 8.77506C73.464 9.41921 72.6802 9.71849 70.9751 9.72642C68.7379 9.73699 61.0995 11.1112 58.2164 12.0222C57.2302 12.3334 57.13 11.9324 57.3954 8.74401C57.6503 5.68511 57.5089 5.03898 56.5021 4.65447C54.8542 4.02485 50.3969 9.09284 49.4292 12.6961C48.7781 15.1175 48.2386 15.6625 44.6533 17.521C42.4306 18.6739 39.0372 20.8078 37.1138 22.2639C35.1898 23.7194 33.4728 24.9106 33.2976 24.9106C33.1224 24.9106 32.9791 23.8892 32.9791 22.6412C32.9791 17.92 30.4325 14.7951 28.6087 17.2785C27.0895 19.3458 26.2552 24.7778 27.0211 27.6101C27.7001 30.1186 27.6364 30.2706 24.2038 34.4143C21.3247 37.8881 17.0658 44.3032 15.4026 47.6693C15.1903 48.1 14.9022 48.0194 14.6447 47.4566C13.5748 45.1145 10.5836 42.5425 9.43875 42.9799C8.46512 43.3518 8.31048 43.9966 8.56401 46.6254C8.73391 48.3828 9.53034 51.1728 10.3347 52.8271L11.7975 55.8345L10.1097 61.8083C9.1819 65.0944 8.42264 69.112 8.42264 70.7372C8.42264 75.5191 7.99855 76.0265 5.53693 74.1912C2.63197 72.0262 0.550651 71.4712 0.0648324 72.7318C-0.52784 74.2685 3.07532 80.2753 5.47521 81.7519C7.70188 83.1221 8.39809 84.6231 8.41335 88.085C8.41866 89.2194 9.16929 93.077 10.0819 96.6585C10.9944 100.239 11.7411 103.218 11.7411 103.278C11.7411 103.339 10.6327 102.825 9.27814 102.137C6.1827 100.566 4.43919 100.533 4.44517 102.044C4.45645 105.05 10.1788 110.126 13.5662 110.134C14.3872 110.136 15.0595 110.389 15.0595 110.696C15.0595 111.004 16.6444 113.769 18.5817 116.841L22.1032 122.425L18.2499 122.148C15.11 121.921 14.3958 122.057 14.3958 122.882C14.3958 125.26 22.1815 129.916 26.2041 129.942C27.9291 129.954 29.4137 130.847 33.2611 134.187C35.9404 136.513 38.8401 138.794 39.7042 139.255C41.2081 140.059 41.1265 140.128 37.7795 140.88C34.1969 141.684 31.6517 143.358 31.6517 144.909C31.6517 145.389 32.3944 146.267 33.3016 146.859C35.4931 148.288 40.0838 147.726 43.9976 145.548L46.9543 143.903L51.415 145.902L55.8763 147.901L53.8852 148.922C51.194 150.302 49.5712 151.779 49.5712 152.852C49.5712 154.373 56.0282 153.919 60.5174 152.082C64.0688 150.629 64.921 150.522 68.4817 151.08C70.6745 151.423 75.1305 151.896 78.3839 152.13L84.2987 152.556L82.0342 153.845C79.8818 155.069 76.7824 158.901 76.7824 160.338C76.7824 161.537 81.0147 161.033 84.4925 159.421C87.925 157.831 91.3835 154.202 91.3835 152.192C91.3835 151.591 91.8873 151.098 92.5025 151.098C94.5885 151.098 102.312 148.933 106.98 147.04C109.535 146.005 111.858 145.156 112.141 145.154C112.424 145.154 112.2 146.03 111.643 147.101C110.425 149.446 110.351 151.217 111.427 152.288C114.55 155.397 119.922 149.392 119.922 142.79C119.922 141.073 120.438 140.417 123.187 138.644C124.983 137.486 128.716 134.434 131.483 131.861L136.514 127.183V129.942C136.514 132.177 136.921 133.1 138.655 134.798L140.795 136.894L141.282 133.26C141.789 129.49 141.436 125.87 140.363 123.803C139.9 122.913 140.138 122.063 141.286 120.5C142.136 119.343 143.553 117.057 144.435 115.422C145.317 113.787 146.241 112.301 146.487 112.119C146.734 111.937 147.109 111.045 147.321 110.137C147.533 109.228 148.261 106.908 148.939 104.98L150.171 101.476L152.363 104.191C153.579 105.697 155.016 106.817 155.591 106.705C157.964 106.242 156.947 99.7498 153.945 96.198C152.182 94.1117 152.164 93.9901 152.102 83.4504C152.068 77.5976 151.808 72.0255 151.525 71.0669L151.009 69.3254L154.438 71.014C157.3 72.4246 157.965 72.5481 158.463 71.7652C160.129 69.145 157.827 65.4935 152.827 62.8224C149.145 60.8556 148.954 60.6164 146.763 55.2386C145.518 52.1843 144.496 49.6401 144.49 49.5839C144.484 49.5278 145.975 50.0484 147.804 50.7401C152.181 52.3957 154.434 52.3944 154.434 50.7355C154.434 48.3987 147.845 43.9742 143.025 43.0737C140.648 42.6297 140.427 42.409 132.34 32.3847L131.153 30.9127L134.331 31.2708C137.669 31.6461 142.53 30.4364 142.962 29.1223C143.464 27.5969 137.717 25.9947 131.441 25.9102C125.54 25.8309 125.269 25.7582 121.652 23.2774C119.605 21.8748 117.931 20.4788 117.931 20.1762C117.931 19.873 119.284 19.6252 120.939 19.6252C124.494 19.6252 128.55 18.1011 128.55 16.7659C128.55 14.0069 119.83 13.3033 115.055 15.6771L112.053 17.1695L106.583 14.9741L101.112 12.7787L104.684 11.5703C109.239 10.029 110.034 9.25867 108.347 8.01925C105.563 5.97382 95.7546 7.18813 93.5339 9.85327C92.8815 10.6362 92.0804 10.7379 89.8836 10.3151C88.3359 10.0165 85.8092 9.76012 84.2688 9.74426L81.468 9.71519L83.1392 7.26411C84.8455 4.76084 85.192 0.490933 83.7272 0.0132692C83.3496 -0.109615 81.701 0.634959 80.0643 1.66824ZM82.7556 3.40184C82.7556 4.92468 79.9402 7.64333 77.8576 8.13157C75.1796 8.75986 75.7982 7.31828 79.3748 4.59501C82.583 2.15251 82.7556 2.09173 82.7556 3.40184ZM53.8122 12.4332C51.9877 14.3293 50.8986 14.8374 50.8986 13.7922C50.8986 13.4916 51.8696 11.7818 53.0556 9.99333C55.1894 6.77654 55.2146 6.762 55.4296 8.63434C55.5856 9.99267 55.129 11.0656 53.8122 12.4332ZM104.657 9.33795C104.657 9.81297 97.2784 11.1786 96.8762 10.7782C96.2623 10.1671 99.4898 9.14173 102.168 9.09614C103.538 9.07368 104.657 9.18203 104.657 9.33795ZM81.5941 12.1213C83.2958 12.4015 84.083 12.8745 84.083 13.6184C84.083 15.4749 86.1298 17.7317 88.983 19.0214C90.4855 19.7012 92.089 20.2634 92.545 20.2714C93.6859 20.2912 93.5584 16.9502 92.3578 15.3699C91.8222 14.6643 91.3835 13.8787 91.3835 13.623C91.3835 12.8157 102.89 15.7914 104.154 16.9264C104.425 17.1695 104.305 18.2695 103.887 19.3709C103.465 20.4848 103.337 22.2058 103.599 23.2477C104.207 25.6551 108.094 29.5353 109.9 29.5353C111.086 29.5353 111.294 29.1369 111.294 26.8662C111.294 25.3981 110.691 23.0197 109.953 21.5808C109.215 20.1419 108.836 18.9646 109.109 18.9646C110.096 18.9646 119.922 25.19 119.922 25.8157C119.922 26.1691 119.4 27.0333 118.761 27.7356C117.194 29.4593 117.151 35.6484 118.695 37.1858C119.714 38.1999 119.872 38.1537 120.942 36.5278C121.575 35.5665 122.279 33.0791 122.508 31.0013L122.924 27.2229L127.969 32.2288C130.744 34.9818 133.505 37.9799 134.105 38.891C135.113 40.4224 135.114 40.7098 134.116 42.7004C132.922 45.0821 133.141 50.2347 134.493 51.56C135.513 52.5609 136.999 50.6476 137.575 47.5887C137.803 46.3803 138.22 45.3913 138.502 45.3913C139.057 45.3913 144.834 56.7066 145.466 59.0321C145.768 60.1421 145.353 60.7578 143.553 61.8651C139.714 64.227 136.924 71.9158 139.543 72.9167C141.323 73.5966 143.643 72.0143 145.505 68.8517C146.489 67.1802 147.427 65.9447 147.589 66.1059C148.072 66.5869 149.74 76.5815 149.765 79.1462C149.787 81.3581 149.603 81.5742 147.068 82.33C142.649 83.648 136.91 89.6046 138.145 91.5925C138.638 92.386 144.346 90.7396 147.476 88.901C149.175 87.904 149.782 87.7798 149.765 88.4345C149.692 91.2146 147.628 100.473 146.117 104.794L144.364 109.807L141.09 109.947C137.54 110.098 132.739 111.915 131.298 113.652C130.508 114.606 130.631 114.83 132.294 115.473C133.338 115.877 135.76 116.052 137.676 115.862C139.592 115.673 141.16 115.655 141.16 115.823C141.16 116.969 134.051 126.274 130.749 129.45C128.269 131.836 128.102 131.891 125.547 131.187C122.552 130.361 114.112 130.851 113.045 131.914C111.958 132.996 113.822 134.397 117.599 135.337C119.424 135.791 121.157 136.357 121.45 136.595C122.03 137.068 109.147 143.831 107.666 143.831C107.167 143.831 105.287 143.096 103.491 142.197C99.8814 140.393 93.5896 139.438 92.0645 140.462C91.2349 141.019 91.3278 141.374 92.6764 142.804C93.5511 143.73 95.2601 144.846 96.4753 145.283C99.0464 146.209 99.2967 146.968 97.1908 147.454C86.7125 149.874 81.4282 150.361 81.4282 148.905C81.4282 148.425 80.3796 146.813 79.098 145.323C76.7565 142.599 71.5751 139.979 70.2026 140.823C69.294 141.382 70.9678 145.508 72.9981 147.713L74.4595 149.301L71.4729 148.85C69.8303 148.602 66.2026 147.779 63.4111 147.021C58.3392 145.644 58.3352 145.641 58.3989 143.418C58.4354 142.141 57.8912 140.419 57.1213 139.374C55.494 137.166 49.6642 133.125 48.8379 133.634C47.8662 134.231 48.1582 136.778 49.4996 139.397C50.1905 140.746 50.6524 141.849 50.5263 141.849C49.9495 141.849 46.3497 140.101 44.0958 138.726C41.8692 137.368 41.607 136.921 41.607 134.486C41.607 131.194 39.5788 127.671 36.8849 126.284C34.7086 125.164 34.4949 125.393 34.1664 129.197L33.9746 131.411L32.2503 130.054C31.3019 129.308 28.8118 126.612 26.7165 124.062C22.9554 119.486 22.9169 119.397 23.7034 117.027C24.9053 113.4 23.3324 106.173 21.3406 106.173C20.5057 106.173 19.7053 109.032 19.7053 112.018C19.7053 113.665 19.6688 113.682 18.7928 112.431C17.2145 110.178 13.9027 101.883 13.0286 97.9951C12.2468 94.5193 12.2826 94.1625 13.547 92.7857C15.5082 90.6504 17.0054 87.4422 17.2072 84.9429C17.4581 81.8364 15.7298 81.7671 12.8036 84.7665L10.4137 87.2163L10.421 80.3427C10.4323 69.9153 10.7217 68.8298 13.7328 67.932C16.3749 67.1438 21.0327 62.6533 21.0327 60.8946C21.0327 59.3995 19.3602 59.0242 16.2269 59.8157C14.6958 60.2028 13.3379 60.4149 13.2098 60.2867C12.8873 59.9663 15.3648 53.8664 17.9173 48.6946L20.0372 44.4003L24.0193 44.0495C30.0814 43.5157 33.6049 41.1769 32.5337 38.3988C32.2191 37.5822 31.3477 37.4005 28.5715 37.573C26.6143 37.6939 25.0135 37.6298 25.0142 37.4302C25.0161 36.5608 31.8475 29.5458 35.1958 26.9738L38.8607 24.1594L40.7037 25.3611C42.0915 26.2656 43.8131 26.5576 47.6804 26.5444C50.5044 26.5345 53.045 26.2973 53.3264 26.0172C54.3929 24.9555 52.307 23.2094 48.3919 21.8874L44.3314 20.5151L47.4494 18.9804C49.1637 18.1361 53.1054 16.6198 56.2081 15.611L61.8494 13.7763L63.0228 16.0325C64.4053 18.6904 66.5258 20.2086 69.9212 20.971C72.3676 21.52 74.7913 20.8567 74.7913 19.6384C74.7913 19.3081 73.2728 17.5494 71.4165 15.7306L68.0416 12.4239L72.2461 12.1881C74.5584 12.0579 77.0479 11.898 77.7779 11.832C78.508 11.7659 80.2256 11.8961 81.5941 12.1213ZM89.4648 14.7739C92.235 17.9769 91.4061 18.6891 88.1162 15.9327C85.863 14.0452 85.2265 11.8597 87.2428 12.934C87.8859 13.2769 88.8854 14.1047 89.4648 14.7739ZM66.6944 14.6074C67.6799 15.1181 69.2104 16.3073 70.0951 17.2501C71.6368 18.8925 71.6475 18.9646 70.3506 18.9646C68.789 18.9646 65.805 16.8028 64.8082 14.949C63.9945 13.4348 64.3177 13.3766 66.6944 14.6074ZM124.203 16.9284C123.604 17.5038 120.49 17.8678 117.599 17.7C116.493 17.6359 116.438 17.5164 117.267 16.9825C118.556 16.1541 125.061 16.1032 124.203 16.9284ZM30.978 23.1373C30.9893 25.2746 29.9321 27.5532 28.9286 27.5532C28.2556 27.5532 28.7129 21.2848 29.4768 20.05C30.0276 19.1581 30.9668 21.0886 30.978 23.1373ZM108.637 23.5833C109.997 27.6841 108.319 28.1049 106.277 24.1752C105.107 21.9224 105.57 19.1205 106.926 20.2416C107.383 20.6189 108.153 22.1226 108.637 23.5833ZM49.1883 24.31C49.7212 24.8736 49.0078 24.9859 46.3796 24.7507C44.4416 24.5783 42.5003 24.059 42.0656 23.5972C41.4305 22.9226 41.9806 22.8361 44.8743 23.1565C46.8541 23.3752 48.7954 23.8945 49.1883 24.31ZM135.757 27.9642C136.892 28.1901 137.658 28.6361 137.46 28.9552C136.966 29.7513 134.703 29.6013 131.537 28.5627L128.882 27.692L131.288 27.6226C132.611 27.5843 134.622 27.7382 135.757 27.9642ZM120.539 30.7304C120.513 31.7082 120.259 33.1029 119.974 33.8296C119.473 35.1054 119.438 35.0994 118.975 33.6499C118.39 31.8172 119.132 28.058 119.976 28.5773C120.312 28.7841 120.565 29.7526 120.539 30.7304ZM30.3243 39.7604C30.3243 40.5255 27.0981 41.9994 24.5171 42.413C21.1548 42.9515 20.8402 42.0913 23.8534 40.5982C25.8438 39.6124 30.3243 39.0324 30.3243 39.7604ZM135.626 46.8778C135.442 47.3324 135.292 46.9604 135.292 46.052C135.292 45.1436 135.442 44.7723 135.626 45.2261C135.811 45.6807 135.811 46.4239 135.626 46.8778ZM147.254 46.788C149.783 48.0578 151.072 49.3553 149.805 49.3553C148.709 49.3553 142.647 46.1828 142.12 45.3332C141.546 44.4096 143.776 45.0411 147.254 46.788ZM12.6364 48.4337C13.7361 50.7302 13.6067 53.3193 12.3915 53.3193C12.0683 53.3193 11.4922 52.2048 11.1126 50.8418C9.71352 45.828 10.6666 44.3223 12.6364 48.4337ZM55.2265 62.3031C55.6393 72.8203 54.7772 100.942 53.8699 106.536C53.258 110.311 54.1401 110.688 66.1634 111.789C81.0366 113.151 97.5877 114.055 98.1485 113.535C99.89 111.924 104.337 79.6516 105.682 58.867L106.114 52.1922L101.237 51.7833C98.5553 51.5587 87.0012 51.1728 75.5619 50.9257L54.7619 50.4765L55.2265 62.3031ZM91.8581 53.7342C98.8082 53.9826 102.847 54.3916 103.262 54.8897C104.163 55.9699 101.373 85.7463 99.3544 96.5931C99.0159 98.41 98.5679 101.086 98.3589 102.539C97.7337 106.88 96.7454 109.932 95.6789 110.813C94.5022 111.785 84.3657 111.354 66.8271 109.588L55.8763 108.485L55.9247 106.833C55.9519 105.925 56.3588 101.466 56.8293 96.9235C57.7333 88.2073 57.929 66.0207 57.1705 58.3596C56.8253 54.8712 56.9302 53.684 57.6257 53.2308C58.4706 52.6798 65.0119 52.7763 91.8581 53.7342ZM80.3232 56.6227C79.5334 56.9398 78.583 57.7385 78.2113 58.3972C77.5583 59.5547 77.4653 59.5547 75.4915 58.3972C73.1965 57.0514 71.1577 57.3831 70.1449 59.2667C69.1772 61.0657 70.3161 63.4547 73.1865 65.6474C74.5365 66.6794 76.2017 68.0489 76.8866 68.6911C78.0003 69.7343 78.3248 69.7581 79.9462 68.9151C85.5218 66.0161 88.5303 59.2687 85.2623 56.9907C83.6263 55.8497 82.4642 55.7631 80.3232 56.6227ZM87.2687 56.7548C87.7067 57.1908 88.0651 58.2314 88.0651 59.0671C88.0651 60.7419 89.2245 61.1304 89.796 59.6472C90.309 58.3166 88.8914 55.962 87.5773 55.962C86.7178 55.962 86.6494 56.1384 87.2687 56.7548ZM90.4922 58.1092C90.7139 59.2898 91.1247 60.5094 91.4054 60.8186C92.2662 61.7666 92.831 58.7408 92.0605 57.3085C90.9501 55.2432 90.0415 55.7076 90.4922 58.1092ZM84.0066 58.5439C85.399 59.4213 84.3664 62.4187 81.7873 64.9861C80.5674 66.2004 79.0973 67.1934 78.5199 67.1934C77.9419 67.1934 76.0762 65.8648 74.3732 64.2402C71.7583 61.7462 71.4079 61.1298 72.12 60.2762C73.2542 58.9159 73.6963 58.9892 75.9979 60.917C78.3713 62.9056 78.7735 62.9585 78.7735 61.285C78.7735 60.0271 81.0559 57.9341 82.4058 57.9539C82.7808 57.9599 83.5009 58.2248 84.0066 58.5439ZM17.5848 62.679C16.6172 64.1299 12.3928 66.7408 11.8645 66.2149C11.0867 65.4406 12.6795 63.7011 15.2155 62.5555C18.7569 60.9553 18.7357 60.954 17.5848 62.679ZM144.224 66.8776C141.481 70.9916 139.759 71.2228 141.82 67.2013C143.073 64.7542 145.714 62.2575 146.364 62.9043C146.533 63.0721 145.57 64.8599 144.224 66.8776ZM152.311 64.8137C154.557 65.9692 156.637 68.2128 156.325 69.1437C156.021 70.0521 151.38 66.9384 150.445 65.1988C149.61 63.6462 149.92 63.5822 152.311 64.8137ZM67.8226 73.6329C65.2674 73.7617 62.8934 74.1496 62.5463 74.4944C62.1488 74.8902 67.6906 75.1214 77.5622 75.1214C86.1676 75.1214 94.1418 75.3071 95.2827 75.5343C96.8609 75.8488 97.3567 75.7127 97.3567 74.9655C97.3567 74.2751 96.3247 73.8608 93.8723 73.5675C90.4006 73.1526 76.6543 73.187 67.8226 73.6329ZM5.37698 77.1543C6.32207 78.2721 7.09527 79.5129 7.09527 79.9119C7.09527 80.7708 3.93015 77.9418 3.02886 76.2776C1.9955 74.3689 3.49609 74.9291 5.37698 77.1543ZM63.8405 83.0177L61.8494 83.4901L64.1724 83.8964C65.45 84.1204 72.8421 84.4778 80.5986 84.6918C92.3485 85.0162 94.702 84.9284 94.702 84.1679C94.702 83.4557 92.7003 83.1584 85.6373 82.8215C74.7462 82.3016 66.547 82.3755 63.8405 83.0177ZM148.433 85.3941C147.586 86.4109 143.026 88.9954 142.079 88.9954C141.116 88.9954 144.246 86.1638 146.469 85.0248C149.07 83.6916 149.747 83.8191 148.433 85.3941ZM15.0569 86.1876C15.0522 87.2037 12.3165 91.1102 11.9004 90.6953C11.378 90.1754 13.7076 85.6921 14.5 85.6921C14.808 85.6921 15.0582 85.9154 15.0569 86.1876ZM62.845 91.5648C62.845 91.8885 66.5039 92.3391 70.9751 92.567C75.4471 92.795 82.3162 93.157 86.2399 93.373C92.231 93.702 93.3746 93.6102 93.3746 92.8002C93.3746 92.0563 91.9855 91.7379 87.2992 91.4069C78.4416 90.7806 62.845 90.8817 62.845 91.5648ZM154.434 101.621C154.434 102.308 154.292 102.869 154.119 102.869C153.627 102.869 151.776 99.0706 151.801 98.1127C151.836 96.7596 154.434 100.222 154.434 101.621ZM62.1813 98.7073C62.1813 99.5417 68.0622 100.127 81.926 100.671C89.1675 100.955 92.7109 100.87 92.7109 100.412C92.7109 99.3224 89.6254 98.9788 75.4842 98.4945C66.6618 98.1926 62.1813 98.2646 62.1813 98.7073ZM10.5916 105.206C13.4647 107.149 13.9379 108.636 11.242 107.248C9.22902 106.212 6.53114 103.53 7.50211 103.53C7.8386 103.53 9.22902 104.284 10.5916 105.206ZM62.5131 106.173C63.6049 106.64 63.4343 106.749 61.5508 106.787C58.612 106.847 59.6314 107.875 63.2014 108.451C65.3146 108.792 66.1913 108.616 67.3494 107.616C68.1571 106.919 68.8182 106.16 68.8182 105.93C68.8182 105.7 67.1005 105.533 65.002 105.558C62.2563 105.592 61.5581 105.765 62.5131 106.173ZM22.3501 113.975C22.3421 115.792 22.1762 116.161 21.6964 115.422C20.8402 114.104 20.8402 110.601 21.6964 111.128C22.0614 111.352 22.3554 112.634 22.3501 113.975ZM140.579 113.2C139.346 113.735 137.554 114.064 136.597 113.93L134.855 113.689L136.514 112.945C137.427 112.537 139.219 112.208 140.496 112.215L142.819 112.227L140.579 113.2ZM22.6919 125.242C24.152 125.903 25.7455 126.924 26.2327 127.51C27.0251 128.463 26.9163 128.518 25.198 128.027C21.265 126.905 16.8694 123.987 19.1684 124.025C19.6463 124.033 21.2318 124.581 22.6919 125.242ZM139.29 131.422C138.405 132.303 137.589 128.463 138.246 126.503C138.682 125.203 138.829 125.388 139.346 127.888C139.723 129.712 139.703 131.011 139.29 131.422ZM39.6159 134.105V136.196L38.2673 134.854C37.5253 134.116 36.7561 132.34 36.5577 130.908L36.1973 128.305L37.9063 130.159C38.9914 131.335 39.6159 132.777 39.6159 134.105ZM125.895 133.256C126.078 133.281 125.699 133.606 125.055 133.98C123.668 134.784 117.931 134.081 117.931 133.107C117.931 132.565 121.115 132.624 125.895 133.256ZM53.1359 137.936C55.0175 139.409 56.1517 141.164 56.5479 143.213C56.891 144.986 56.0933 144.811 54.085 142.675C52.084 140.545 49.9383 136.564 50.7918 136.564C51.117 136.564 52.1722 137.181 53.1359 137.936ZM44.6022 142.523C45.1093 143.34 41.4198 144.955 37.6899 145.549C35.4924 145.899 34.9701 145.786 34.9701 144.961C34.9701 143.09 43.5981 140.906 44.6022 142.523ZM100.509 143.285C103.324 144.132 103.311 145.158 100.493 144.525C98.3582 144.046 95.3656 142.699 95.3656 142.218C95.3656 141.932 97.4523 142.364 100.509 143.285ZM117.916 143.666C117.908 144.302 117.326 146.085 116.622 147.63C115.728 149.589 114.935 150.438 113.998 150.438C112.809 150.438 112.733 150.23 113.34 148.621C114.195 146.357 116.766 142.52 117.433 142.514C117.707 142.512 117.924 143.03 117.916 143.666ZM78.1297 147.162C78.9288 148.279 79.4172 149.356 79.2161 149.557C78.3666 150.403 72.8003 145.292 72.8003 143.667C72.8003 142.614 76.7107 145.179 78.1297 147.162ZM60.8539 149.698C60.8539 150.282 55.7183 151.806 54.089 151.705C52.8751 151.631 58.2695 149.155 59.6925 149.133C60.3316 149.124 60.8539 149.379 60.8539 149.698ZM87.0569 155.035C84.9477 157.12 80.1008 159.47 80.1008 158.408C80.1008 157.135 86.1649 153.265 88.3843 153.122C88.7421 153.099 88.1447 153.96 87.0569 155.035Z" fill="#5A8CC1"/>
</svg>
