<svg width="24" height="20" viewBox="0 0 24 20" fill="none" xmlns="http://www.w3.org/2000/svg">
<path fill-rule="evenodd" clip-rule="evenodd" d="M5.20716 0.641246C4.8065 1.07471 3.95406 1.23117 2.82656 1.07865C1.46247 0.893649 0.997546 1.03289 0.742934 1.70252C0.401666 2.60192 1.48389 4.68216 2.83533 5.72326C3.51738 6.24824 3.48086 6.40126 2.5038 7.10582C-0.999916 9.63379 -0.785711 16.0305 2.89083 18.6765C4.95644 20.1629 6.96315 20.3843 9.49856 19.4062C11.2585 18.7267 11.9756 18.6618 12.92 19.0967C14.7023 19.9174 18.4684 19.7599 20.3812 18.7848C22.8002 17.5518 24.0445 15.1099 23.9988 11.686C23.9559 8.51495 23.067 6.76485 20.9313 5.64847C18.483 4.36924 15.9792 4.22951 13.087 5.21058C9.8447 6.31073 7.49234 6.20051 8.01422 4.97294C8.79023 3.14658 8.78244 1.58198 7.99231 0.783438C7.00892 -0.21043 6.04013 -0.259632 5.20716 0.641246ZM7.68804 1.83586C8.31216 3.01423 6.56542 5.87037 5.22079 5.87037C4.22425 5.87037 1.41135 3.37684 1.41135 2.49319C1.41135 1.41076 2.51548 1.39452 3.63811 2.46071C4.28754 3.07721 4.84642 3.43244 4.88001 3.24991C4.9136 3.06737 4.99588 2.69688 5.06257 2.42627C5.12927 2.15567 5.21154 1.71285 5.24513 1.44225C5.34883 0.604345 7.19294 0.90103 7.68804 1.83586ZM19.7371 6.1828C24.0236 8.23844 24.0786 15.7466 19.8232 17.9705C18.3277 18.7518 13.5407 18.7853 12.7832 18.0192C12.0398 17.2679 13.8075 16.2027 15.7972 16.2027C17.4816 16.2027 18.0911 15.9483 18.9017 14.9062C21.1192 12.0575 19.2902 8.19612 15.7232 8.19612C13.2876 8.19612 10.4747 9.58951 10.8602 10.605C11.0131 11.008 10.8305 12.0821 10.4542 12.9923C9.32428 15.7254 6.62822 16.555 4.81916 14.7266C3.57969 13.474 3.57969 12.0432 4.81916 10.7905C6.21538 9.37942 8.22696 9.46896 8.22696 10.9425C8.22696 11.5674 8.55071 12.5081 8.94601 13.0336C9.60421 13.9079 9.64072 13.7997 9.38026 11.7524C9.13344 9.8119 9.26878 9.30808 10.4055 7.94274C12.4682 5.46544 16.6116 4.68363 19.7371 6.1828ZM9.20062 7.06006C9.20062 8.09674 8.39395 8.82246 7.24113 8.82246C5.19402 8.82246 4.37468 9.28101 3.5534 10.886C2.18492 13.5601 3.83381 16.6947 6.60826 16.6947C9.42651 16.6947 11.6348 14.3507 11.6348 11.3598C11.6348 9.79468 12.8348 8.90315 13.2983 10.1238C13.4545 10.5347 13.5811 11.683 13.5801 12.6759C13.5758 17.3801 8.41829 20.5521 4.28657 18.3926C0.307708 16.3134 -0.160135 10.1878 3.46431 7.62244C4.40925 6.9533 9.20062 6.48391 9.20062 7.06006ZM17.9158 10.0013C18.6368 10.7767 18.9572 11.6437 18.8525 12.5357C18.6607 14.1726 16.5133 15.9375 15.2227 15.5193C14.4598 15.2723 14.3084 14.7055 14.2899 12.0235C14.2675 8.89134 14.2948 8.82246 15.5435 8.82246C16.2611 8.82246 17.3 9.33858 17.9158 10.0013Z" fill="#5A8CC1"/>
</svg>
