<svg width="17" height="18" viewBox="0 0 17 18" fill="none" xmlns="http://www.w3.org/2000/svg">
<path fill-rule="evenodd" clip-rule="evenodd" d="M13.4416 0.832261C12.9475 0.832261 11.8817 1.49338 11.0725 2.30262C9.88197 3.49314 9.26623 3.43705 7.83747 2.00829C2.10542 -3.72376 -2.89933 6.1515 2.14323 13.2449C3.30729 14.8816 5.32406 16.6753 6.69106 17.2898C9.07526 18.3605 9.24984 18.2742 12.6513 14.3421C14.946 11.6894 16.3079 9.25481 16.5972 7.28531C17.0251 4.38178 15.2888 0.831631 13.4416 0.832261ZM14.0662 8.82688C13.3666 10.5311 11.7922 12.9272 10.5677 14.1518C8.38641 16.3331 8.29061 16.3268 5.78918 13.8253C0.964053 9.0002 0.67162 1.7209 5.33163 2.44442C7.00177 2.70408 7.43348 3.27067 8.18788 6.19814C8.99838 9.33927 9.13514 9.50376 9.73135 8.04664C11.3946 3.97969 12.5693 2.9587 13.9722 4.36162C14.9359 5.32526 14.963 6.64183 14.0662 8.82688Z" fill="#5A8CC1"/>
</svg>
