<svg width="35" height="35" viewBox="0 0 35 35" fill="none" xmlns="http://www.w3.org/2000/svg">
<path fill-rule="evenodd" clip-rule="evenodd" d="M24.3244 1.51953H10.3298C5.17708 1.51953 1 5.69661 1 10.8493V24.844C1 29.9967 5.17708 34.1737 10.3298 34.1737H24.3244C29.4771 34.1737 33.6542 29.9967 33.6542 24.844V10.8493C33.6542 5.69661 29.4771 1.51953 24.3244 1.51953Z" stroke="#5A8CC1" stroke-width="1.5" stroke-linecap="round" stroke-linejoin="round"/>
<rect x="24.3245" y="10.8486" width="4.66488" height="4.66488" rx="1" transform="rotate(-90 24.3245 10.8486)" fill="#5A8CC1"/>
<rect x="25.4907" y="9.68262" width="2.33244" height="2.33244" rx="0.5" transform="rotate(-90 25.4907 9.68262)" stroke="#5A8CC1" stroke-linecap="round"/>
<path fill-rule="evenodd" clip-rule="evenodd" d="M17.3269 24.8433C13.4624 24.8433 10.3296 21.7105 10.3296 17.846C10.3296 13.9814 13.4624 10.8486 17.3269 10.8486C21.1914 10.8486 24.3242 13.9814 24.3242 17.846C24.3242 19.7018 23.587 21.4816 22.2748 22.7938C20.9625 24.1061 19.1827 24.8433 17.3269 24.8433Z" stroke="#5A8CC1" stroke-width="1.5" stroke-linecap="round" stroke-linejoin="round"/>
</svg>
