<svg width="16" height="16" viewBox="0 0 16 16" fill="none" xmlns="http://www.w3.org/2000/svg">
<path d="M14.2505 5.21535C14.2652 5.6293 14.6127 5.95293 15.0267 5.93819C15.4406 5.92345 15.7643 5.57592 15.7495 5.16197L14.2505 5.21535ZM10.9997 1.45533V2.20533C11.0081 2.20533 11.0164 2.20519 11.0248 2.20491L10.9997 1.45533ZM5.00027 1.45533L4.97521 2.20491C4.98356 2.20519 4.99191 2.20533 5.00027 2.20533V1.45533ZM0.250475 5.16197C0.235735 5.57592 0.559359 5.92345 0.97331 5.93819C1.38726 5.95293 1.73478 5.6293 1.74952 5.21535L0.250475 5.16197ZM15.75 5.18848C15.75 4.77426 15.4142 4.43848 15 4.43848C14.5858 4.43848 14.25 4.77426 14.25 5.18848H15.75ZM15 10.7885L15.7495 10.8152C15.7498 10.8063 15.75 10.7974 15.75 10.7885H15ZM10.9997 14.5218L11.0248 13.7722C11.0164 13.7719 11.0081 13.7718 10.9997 13.7718V14.5218ZM5.00027 14.5218V13.7718C4.99191 13.7718 4.98356 13.7719 4.97521 13.7722L5.00027 14.5218ZM1 10.7885H0.25C0.25 10.7974 0.250158 10.8063 0.250475 10.8152L1 10.7885ZM1.75 5.18848C1.75 4.77426 1.41421 4.43848 1 4.43848C0.585786 4.43848 0.25 4.77426 0.25 5.18848H1.75ZM15.3783 5.83608C15.736 5.62715 15.8565 5.16784 15.6476 4.81018C15.4387 4.45251 14.9794 4.33194 14.6217 4.54087L15.3783 5.83608ZM10.0869 8.05848L9.70861 7.41084L9.70239 7.41456L10.0869 8.05848ZM5.91307 8.05848L6.29763 7.41453L6.29137 7.41087L5.91307 8.05848ZM1.3783 4.54087C1.02064 4.33194 0.561328 4.45251 0.352398 4.81018C0.143468 5.16784 0.264038 5.62715 0.621699 5.83608L1.3783 4.54087ZM15.7495 5.16197C15.6588 2.61413 13.5227 0.620584 10.9747 0.705747L11.0248 2.20491C12.7461 2.14738 14.1892 3.49414 14.2505 5.21535L15.7495 5.16197ZM10.9997 0.705328H5.00027V2.20533H10.9997V0.705328ZM5.02532 0.705747C2.47729 0.620584 0.341201 2.61413 0.250475 5.16197L1.74952 5.21535C1.81082 3.49414 3.25387 2.14738 4.97521 2.20491L5.02532 0.705747ZM14.25 5.18848V10.7885H15.75V5.18848H14.25ZM14.2505 10.7618C14.1892 12.483 12.7461 13.8298 11.0248 13.7722L10.9747 15.2714C13.5227 15.3566 15.6588 13.363 15.7495 10.8152L14.2505 10.7618ZM10.9997 13.7718H5.00027V15.2718H10.9997V13.7718ZM4.97521 13.7722C3.25387 13.8298 1.81082 12.483 1.74952 10.7618L0.250475 10.8152C0.341201 13.363 2.47729 15.3566 5.02532 15.2714L4.97521 13.7722ZM1.75 10.7885V5.18848H0.25V10.7885H1.75ZM14.6217 4.54087L9.70863 7.41087L10.4652 8.70608L15.3783 5.83608L14.6217 4.54087ZM9.70239 7.41456C8.65384 8.04076 7.34616 8.04076 6.29761 7.41456L5.52852 8.70239C7.05078 9.61148 8.94922 9.61148 10.4715 8.70239L9.70239 7.41456ZM6.29137 7.41087L1.3783 4.54087L0.621699 5.83608L5.53477 8.70608L6.29137 7.41087Z" fill="#5A8CC1"/>
</svg>
