<svg width="16" height="17" viewBox="0 0 16 17" fill="none" xmlns="http://www.w3.org/2000/svg">
<path fill-rule="evenodd" clip-rule="evenodd" d="M1.86343 2.88148C2.74343 1.95448 3.05443 1.69448 3.42943 1.57348C3.68895 1.50548 3.96112 1.5017 4.22243 1.56248C4.56643 1.66248 4.65743 1.73848 5.78543 2.86248C6.77643 3.84948 6.87543 3.95648 6.97043 4.14948C7.15208 4.48826 7.18046 4.88847 7.04843 5.24948C6.94843 5.52448 6.80643 5.70648 6.20543 6.30948L5.81343 6.70248C5.71048 6.8071 5.68629 6.96597 5.75343 7.09648C6.62437 8.58234 7.86 9.82142 9.34343 10.6965C9.51418 10.7879 9.72445 10.7584 9.86343 10.6235L10.2404 10.2525C10.4734 10.0136 10.7202 9.78858 10.9794 9.57848C11.3866 9.32849 11.8939 9.30619 12.3214 9.51948C12.5304 9.61948 12.5994 9.68148 13.6214 10.7015C14.6754 11.7525 14.7054 11.7855 14.8214 12.0265C15.0397 12.4254 15.0374 12.9086 14.8154 13.3055C14.7024 13.5295 14.6334 13.6105 14.0404 14.2165C13.6824 14.5825 13.3454 14.9165 13.2914 14.9655C12.8022 15.3705 12.1746 15.5692 11.5414 15.5195C10.383 15.4139 9.26169 15.0558 8.25643 14.4705C6.02956 13.2907 4.13383 11.5717 2.74243 9.47048C2.43937 9.03075 2.16994 8.56877 1.93643 8.08848C1.31001 7.01485 0.986529 5.79142 1.00043 4.54848C1.04825 3.89824 1.36008 3.2959 1.86343 2.88148Z" stroke="#5A8CC1" stroke-width="1.5" stroke-linecap="round" stroke-linejoin="round"/>
</svg>
