<svg width="47" height="47" viewBox="0 0 47 47" fill="none" xmlns="http://www.w3.org/2000/svg">
<path d="M46.5 23.4547C46.5 36.1314 36.2035 46.4094 23.5 46.4094C10.7965 46.4094 0.5 36.1314 0.5 23.4547C0.5 10.7781 10.7965 0.5 23.5 0.5C36.2035 0.5 46.5 10.7781 46.5 23.4547Z" fill="#EBF1FD" fill-opacity="0.87" stroke="#5A8CC1"/>
<path fill-rule="evenodd" clip-rule="evenodd" d="M13.3311 18.2115C13.369 18.7635 14.1909 19.9034 15.1588 20.7454C16.5829 21.9842 16.5674 22.6764 15.0779 24.3821C9.10214 31.2252 19.4354 36.4008 28.436 30.3812C30.6742 28.8842 39.2831 23.9513 39.4363 22.6749C39.5895 21.3986 38.2654 20.7248 33.4363 18.1836C30.2908 15.8234 22.5385 14.3636 20.3117 14.1914C17.0289 13.9359 13.1885 16.1479 13.3311 18.2115ZM22.4363 16.4081C24.6409 16.8553 28.0927 18.0121 31.4363 19.6807C34.4363 21.1778 37.9363 22.6749 34.9363 24.172C28.9363 28.6634 15.4363 35.3715 15.7585 27.1481C15.9209 25.2624 16.5219 24.7366 19.7408 23.6694C23.1945 22.5231 23.3681 22.3577 21.6913 21.8034C17.0113 20.2571 15.7782 19.0229 17.2408 17.3481C18.2454 16.1977 18.9363 15.41 22.4363 16.4081Z" fill="#5A8CC1"/>
</svg>
