<svg width="47" height="47" viewBox="0 0 47 47" fill="none" xmlns="http://www.w3.org/2000/svg">
<path d="M0.500006 23.4547C0.500007 10.7781 10.7966 0.499985 23.5 0.499987C36.2035 0.499988 46.5 10.7781 46.5 23.4547C46.5 36.1313 36.2035 46.4094 23.5 46.4094C10.7965 46.4094 0.500005 36.1313 0.500006 23.4547Z" fill="#EBF1FD" fill-opacity="0.87" stroke="#5A8CC1"/>
<path fill-rule="evenodd" clip-rule="evenodd" d="M33.6689 18.2776C33.631 18.8296 32.8091 19.9696 31.8412 20.8116C30.4171 22.0503 30.4326 22.7425 31.9221 24.4482C37.8979 31.2913 27.5646 36.467 18.5639 30.4473C16.3258 28.9503 7.7169 24.0174 7.56369 22.741C7.41048 21.4647 8.73459 20.7909 13.5637 18.2497C16.7092 15.8895 24.4615 14.4297 26.6882 14.2575C29.9711 14.002 33.8115 16.214 33.6689 18.2776ZM24.5637 16.4742C22.3591 16.9215 18.9073 18.0782 15.5637 19.7468C12.5637 21.2439 9.06369 22.741 12.0637 24.2381C18.0637 28.7295 31.5637 35.4376 31.2415 27.2142C31.0791 25.3285 30.4781 24.8028 27.2592 23.7355C23.8055 22.5893 23.6319 22.4239 25.3087 21.8695C29.9887 20.3232 31.2218 19.0891 29.7592 17.4142C28.7546 16.2638 28.0637 15.4761 24.5637 16.4742Z" fill="#5A8CC1"/>
</svg>
