<svg width="15" height="15" viewBox="0 0 15 15" fill="none" xmlns="http://www.w3.org/2000/svg">
<path d="M1.95703 9.80322C1.95703 9.38901 1.62124 9.05322 1.20703 9.05322C0.792818 9.05322 0.457031 9.38901 0.457031 9.80322H1.95703ZM1.20703 10.6836H0.457031H1.20703ZM14.1301 9.80322C14.1301 9.38901 13.7943 9.05322 13.3801 9.05322C12.9658 9.05322 12.6301 9.38901 12.6301 9.80322H14.1301ZM6.7045 10.219C6.4477 10.544 6.50299 11.0156 6.82799 11.2724C7.153 11.5292 7.62464 11.4739 7.88144 11.1489L6.7045 10.219ZM11.3594 6.7472C11.6162 6.4222 11.561 5.95056 11.236 5.69376C10.9109 5.43696 10.4393 5.49225 10.1825 5.81725L11.3594 6.7472ZM6.70399 11.1489C6.96079 11.4739 7.43243 11.5292 7.75744 11.2724C8.08244 11.0156 8.13773 10.544 7.88093 10.219L6.70399 11.1489ZM4.40292 5.81725C4.14612 5.49225 3.67448 5.43696 3.34948 5.69376C3.02447 5.95056 2.96918 6.4222 3.22598 6.7472L4.40292 5.81725ZM6.54413 10.6838C6.54413 11.098 6.87991 11.4338 7.29413 11.4338C7.70834 11.4338 8.04413 11.098 8.04413 10.6838H6.54413ZM8.04413 1C8.04413 0.585786 7.70834 0.25 7.29413 0.25C6.87991 0.25 6.54413 0.585786 6.54413 1H8.04413ZM0.457031 9.80322V10.6836H1.95703V9.80322H0.457031ZM0.457031 10.6836C0.457031 12.5476 1.95195 14.0746 3.81554 14.0746V12.5746C2.79785 12.5746 1.95703 11.7368 1.95703 10.6836H0.457031ZM3.81554 14.0746H10.7716V12.5746H3.81554V14.0746ZM10.7716 14.0746C12.6351 14.0746 14.1301 12.5476 14.1301 10.6836H12.6301C12.6301 11.7368 11.7892 12.5746 10.7716 12.5746V14.0746ZM14.1301 10.6836V9.80322H12.6301V10.6836H14.1301ZM7.88144 11.1489L11.3594 6.7472L10.1825 5.81725L6.7045 10.219L7.88144 11.1489ZM7.88093 10.219L4.40292 5.81725L3.22598 6.7472L6.70399 11.1489L7.88093 10.219ZM8.04413 10.6838V1H6.54413V10.6838H8.04413Z" fill="white"/>
</svg>
