<svg width="217" height="33" viewBox="0 0 217 33" fill="none" xmlns="http://www.w3.org/2000/svg">
<path fill-rule="evenodd" clip-rule="evenodd" d="M3.23088 15.8085L6.86118 13.5709L4.68097 12.7644C2.39604 11.9195 0.0211179 9.85987 0.674129 9.2887C0.883856 9.10526 3.14479 8.61927 5.6993 8.20803C10.7464 7.39521 15.3391 7.7451 21.6162 9.41926C25.2773 10.3957 25.9297 10.3922 28.7086 9.37732L31.7687 8.26049L28.6471 6.81089C24.8011 5.0259 21.8637 2.7194 22.4249 1.92552C22.9758 1.14624 31.0293 1.20063 34.9913 2.0097C38.5716 2.74185 41.8761 4.67932 42.9003 6.64778C43.3692 7.54988 45.7158 8.59866 49.8632 9.75994C54.9373 11.181 56.0142 11.3087 55.5691 10.4387C55.2665 9.84841 54.991 8.43727 54.9557 7.30328C54.8697 4.55107 58.26 3.30449 61.4934 4.89961C64.4603 6.36367 64.5541 9.98688 61.6322 10.2468L59.6478 10.4235L61.4571 9.27959C63.163 8.20029 63.1902 8.06119 61.9319 6.84033C61.1977 6.12788 59.5815 5.54389 58.3394 5.54259C56.3933 5.54054 56.0811 5.81013 56.0793 7.49716C56.0764 10.2507 59.4104 12.7885 65.8164 14.9095C72.389 17.0855 73.1684 17.1169 71.5934 15.1409C70.9149 14.2901 70.3595 13.3503 70.3598 13.0526C70.3606 12.3047 73.8139 12.3786 76.2028 13.1777L78.18 13.8386L77.0032 11.3635C76.3562 10.0028 76.0242 8.71611 76.2657 8.50557C77.0267 7.8399 82.518 9.61202 86.4008 11.7755C89.6491 13.5856 92.459 16.3184 95.3532 20.4802C95.9404 21.324 97.8797 21.7365 102.828 22.0687L109.51 22.5175L108.187 20.8576C105.798 17.8616 106.946 14.9924 111.043 13.7236C113.047 13.1024 116.171 14.3307 116.764 15.9732C117.446 17.8641 115.901 20.2125 113.977 20.2104C111.91 20.2083 111.978 19.0799 114.076 18.6021C116.002 18.1624 115.89 16.2206 113.874 15.1047C112.932 14.5834 111.955 14.6067 110.501 15.186C107.927 16.2102 107.766 18.9085 110.152 21.0044C111.774 22.4287 112.337 22.4794 121.858 22.0699C127.36 21.8329 132.882 21.3907 134.13 21.0873C136.32 20.5539 136.251 20.494 132.091 19.3404C127.235 17.9933 123.477 15.1232 124.919 13.862C126.055 12.8677 135.792 12.2602 140.531 12.8878C142.865 13.197 145.47 14.2363 147.759 15.772L151.338 18.1724L156.469 17.048L161.601 15.9243L160.03 14.1703C158.073 11.9852 158.075 11.5511 160.05 9.82366C162.934 7.30137 168.971 8.67335 167.702 11.5619C167.061 13.0214 165.48 12.8848 165.767 11.395C166.089 9.72636 161.746 9.71136 160.545 11.3763C159.515 12.8041 161.224 14.703 163.684 14.8642C164.86 14.9413 181.522 11.2891 188.567 9.40981C189.245 9.22895 188.353 8.5212 186.344 7.6474C182.929 6.1627 178.793 1.80755 179.648 0.597967C180.397 -0.462856 190.058 0.710486 193.579 2.28991C195.552 3.17481 197.082 4.48082 197.624 5.74475C198.472 7.71929 198.652 7.77722 203.957 7.7828C212.001 7.79126 217.145 10.5592 216.277 14.4138C215.846 16.3265 212.106 18.4527 210.139 17.9031C208.052 17.32 207.891 16.1358 209.964 16.6132C213.351 17.3931 216.127 14.079 214.205 11.5503C212.226 8.94703 203.829 8.42478 193.549 10.2659C187.196 11.4036 184.96 12.5505 183.763 15.2854C182.245 18.7566 186.694 21.1419 188.912 18.0471C189.585 17.1086 189.447 16.6417 188.28 15.8919C187.21 15.2041 187.057 14.7893 187.738 14.4213C188.834 13.8291 190.998 15.181 190.997 16.4568C190.995 17.931 187.779 20.9837 186.229 20.9821C185.419 20.9813 184.195 20.4881 183.509 19.8863C182.129 18.673 181.818 14.3469 183.063 13.6741C183.499 13.438 183.857 12.9779 183.857 12.6516C183.858 12.3253 181.311 12.7338 178.199 13.5598L172.539 15.0621L170.852 19.0709C168.951 23.5846 165.28 27.3158 160.76 29.332C155.689 31.5932 154.498 31.1572 156.043 27.6046C156.955 25.5073 157.046 25.5332 153.408 26.8609C150.185 28.0374 148.125 28.198 148.126 27.2727C148.127 26.9291 149.294 25.1299 150.722 23.2753L153.318 19.904L144.573 21.4503C139.764 22.3009 134.874 22.9998 133.707 23.0042C132.539 23.0085 130.466 23.8349 129.099 24.8415C127.131 26.2899 126.662 27.1229 126.851 28.8393C127.047 30.6246 127.475 31.0467 129.277 31.2301C132.059 31.5134 133.195 29.5138 131.038 28.1278C129.632 27.2241 129.641 27.1837 131.253 27.1854C133.584 27.1879 134.377 29.6876 132.593 31.411C130.846 33.0997 128.122 33.1274 126.418 31.4734C124.594 29.7031 124.784 27.2294 126.897 25.2288L128.685 23.536L120.432 23.9113C114.899 24.1629 111.946 24.5883 111.474 25.2035C111.087 25.7075 110.397 26.6946 109.939 27.3961C109.481 28.0975 107.896 29.1129 106.417 29.6533C103.551 30.6994 92.5642 31.0127 92.5652 30.0485C92.5667 28.6071 98.0625 25.3299 102.033 24.404C103.501 24.0611 102.115 23.7007 96.9212 23.0733C93.0024 22.5996 87.7498 21.8497 85.2502 21.406C81.3626 20.716 80.3022 20.7663 77.9288 21.7559C73.6625 23.5337 73.1762 27.763 77.2327 27.8138C78.8915 27.8344 80.8614 25.6353 79.9225 24.8106C78.6245 23.6704 78.9239 22.6724 80.2698 23.6534C82.9845 25.6327 81.0583 28.524 77.028 28.5198C72.0651 28.5145 71.4075 24.3606 75.91 21.4498L78.2736 19.9217L72.3878 18.2883L66.5027 16.6557L63.5857 18.3862C59.7784 20.646 55.7728 21.2512 51.4181 20.2253C47.8593 19.3868 43.3703 17.0313 43.3714 16.0024C43.3717 15.6942 46.8178 15.0314 51.0288 14.5287L58.6857 13.6156L55.3313 12.3627C50.0974 10.4079 43.1422 9.00501 38.6643 9.0003C35.3546 8.99682 34.1954 9.32883 32.5764 10.7449C30.2528 12.7774 30.1895 16.3691 32.4565 17.6161C34.2325 18.5933 36.6236 17.3971 36.6255 15.5313C36.6266 14.5184 36.1102 14.2472 34.3806 14.3519C32.5011 14.4661 32.2901 14.3239 33.0894 13.4809C34.3298 12.1743 35.8108 12.2051 37.3649 13.5703C39.0349 15.0378 38.9327 16.3692 37.0197 18.0424C34.9972 19.8115 32.6891 19.8091 30.6703 18.0358C28.7529 16.3516 28.635 13.7204 30.3717 11.4021C31.0775 10.4595 31.418 9.68836 31.1275 9.68805C29.9488 9.68681 25.3493 12.0904 22.7741 14.0537C18.1297 17.5926 12.19 19.5621 5.86663 19.6577C-1.06871 19.7631 -1.69714 18.8456 3.23088 15.8085ZM6.47286 12.2542C7.91613 12.6766 9.60665 12.7097 10.7547 12.3387C13.2819 11.5226 12.8686 11.3371 7.27445 10.7774C2.39458 10.2902 2.03355 10.9556 6.47286 12.2542ZM7.25838 18.5065C11.2034 18.1537 21.0588 14.9299 20.2785 14.2473C19.9146 13.929 2.91802 18.2111 2.90171 18.6257C2.89521 18.7746 4.85567 18.721 7.25838 18.5065ZM13.2339 14.834C18.2435 13.514 22.6998 12.288 23.1365 12.1097C24.4466 11.5747 15.4444 12.5106 12.0236 13.2653C8.97438 13.9383 3.32219 16.528 3.86457 17.0044C4.0081 17.1305 8.22439 16.154 13.2339 14.834ZM16.2567 10.661C21.0637 11.018 22.0265 10.9425 20.8359 10.3013C20.007 9.85445 16.0787 9.37865 12.1064 9.24368C3.60874 8.95577 6.47371 9.93413 16.2567 10.661ZM31.0379 6.5873C32.5596 7.14615 34.9775 7.58767 36.4101 7.56761C38.5507 7.53786 37.8836 7.16844 32.6677 5.49541C29.1766 4.37586 25.9727 3.45071 25.5481 3.43983C24.375 3.41007 27.9143 5.43962 31.0379 6.5873ZM36.1328 5.56166L41.9771 7.52616L40.1597 5.82748C38.187 3.98254 34.0603 2.71206 30.2895 2.78949C28.9798 2.81594 28.4439 3.00877 29.0985 3.21747C29.753 3.42617 32.9187 4.48137 36.1328 5.56166ZM54.6149 17.3548C60.6437 17.373 63.1817 16.8344 61.4946 15.8949C60.2436 15.1979 54.5347 15.114 50.2553 15.7286C45.7338 16.3792 48.298 17.335 54.6149 17.3548ZM55.0278 19.4423C57.2938 19.4503 59.3108 19.2228 59.5103 18.9357C59.7106 18.6486 57.4266 18.402 54.4361 18.3877C51.4455 18.3728 49.4277 18.6009 49.9528 18.8936C50.4779 19.1871 52.7619 19.4337 55.0278 19.4423ZM73.9838 15.2986C72.9727 15.2975 75.2007 17.3855 77.0357 18.159C78.0623 18.5921 77.7865 18.1834 76.3083 17.0806C73.7356 15.1613 74.0924 14.6997 76.9322 16.2729C77.8983 16.8082 79.5786 17.4813 80.6665 17.7683C82.4613 18.2426 82.5407 18.1815 81.5243 17.1056C80.4112 15.928 77.1293 14.5026 73.465 13.6054C71.6193 13.1541 71.6058 13.1757 73.0897 14.218C73.9367 14.813 74.3386 15.299 73.9838 15.2986ZM79.9549 13.6672C81.7435 16.2091 86.9933 19.6986 90.1942 20.472C91.8264 20.8668 91.5055 20.3969 88.3866 17.8238C83.489 13.7844 78.2997 10.1787 78.2991 10.8146C78.2988 11.0887 79.0443 12.3723 79.9549 13.6672ZM88.9258 16.7627C91.4976 18.8386 93.2029 19.8686 92.7157 19.0527C91.6199 17.2184 84.0061 11.135 82.8053 11.1338C82.3061 11.1333 82.4279 11.5334 83.0885 12.0607C83.7268 12.5713 86.3541 14.6869 88.9258 16.7627ZM101.684 27.8535C107.145 26.2668 108.954 25.0749 105.906 25.0717C103.269 25.0689 99.056 26.2173 96.6537 27.5936C93.4762 29.4136 95.8849 29.5379 101.684 27.8535ZM106.006 28.2267C109.466 26.663 109.025 26.353 105.303 27.7314C103.577 28.371 102.48 28.9918 102.867 29.1111C103.254 29.2305 104.666 28.8327 106.006 28.2267ZM139.999 19.4009C143.713 19.5843 146.547 19.4467 146.547 19.0836C146.548 18.4554 130.05 15.3263 127.051 15.3871C126.114 15.4056 127.059 16.1287 129.485 17.2478C132.547 18.6612 134.944 19.1521 139.999 19.4009ZM141.388 16.4047C144.442 16.9255 147.062 17.2448 147.211 17.1148C147.359 16.9849 146.485 16.3043 145.268 15.6031C143.567 14.6225 141.305 14.296 135.478 14.1911C127.188 14.0411 126.9 13.9337 141.388 16.4047ZM155.274 22.5914C158.332 20.3914 160.834 18.4906 160.835 18.3675C160.835 18.245 159.461 18.757 157.782 19.5059C155.119 20.6927 149.716 25.195 149.715 26.2267C149.714 26.4271 152.216 24.7914 155.274 22.5914ZM155.874 24.8634C157.16 24.2818 158.826 22.9861 159.578 21.983C160.797 20.3557 160.513 20.441 156.938 22.7754C152.611 25.6002 152.123 26.559 155.874 24.8634ZM159.673 26.489C162.451 24.2052 168.285 17.5217 167.84 17.131C167.288 16.6462 160.891 22.2265 159.172 24.6916C157.067 27.7121 157.275 28.4595 159.673 26.489ZM160.229 28.1975C163.844 26.4113 166.673 23.8945 168.384 20.9432C171.179 16.1195 170.86 16.0725 166.859 20.7189C164.933 22.9549 162.43 25.5423 161.297 26.4685C159.072 28.2874 158.644 28.9813 160.229 28.1975ZM187.196 6.79261C188.374 7.32883 190.519 7.74153 191.958 7.71035C194.385 7.65725 194.17 7.48032 189.024 5.29951C185.97 4.00441 183.148 2.93288 182.753 2.91785C181.587 2.8728 184.868 5.73481 187.196 6.79261ZM196.356 6.79668C196.907 6.31515 191.829 2.98027 189.504 2.29676C183.615 0.564573 183.795 1.68968 189.819 4.25752C193.31 5.74578 196.251 6.8877 196.356 6.79668Z" fill="#5A8CC1"/>
</svg>
