<svg width="217" height="33" viewBox="0 0 217 33" fill="none" xmlns="http://www.w3.org/2000/svg">
<path fill-rule="evenodd" clip-rule="evenodd" d="M213.522 16.235L209.894 13.9935L212.075 13.1892C214.361 12.3468 216.738 10.2896 216.086 9.71777C215.876 9.53411 213.616 9.04573 211.062 8.6318C206.015 7.81367 201.422 8.15873 195.144 9.82629C191.481 10.7989 190.829 10.7947 188.051 9.7769L184.992 8.65684L188.115 7.21051C191.963 5.42956 194.903 3.12614 194.343 2.33167C193.793 1.55181 185.739 1.59772 181.776 2.40263C178.195 3.13101 174.889 5.06502 173.863 7.03242C173.393 7.93403 171.045 8.98034 166.896 10.1373C161.821 11.553 160.744 11.6796 161.19 10.81C161.493 10.22 161.77 8.8092 161.806 7.67523C161.895 4.9231 158.506 3.67295 155.271 5.26468C152.303 6.72562 152.205 10.3488 155.127 10.6117L157.111 10.7905L155.303 9.64472C153.598 8.56362 153.571 8.42448 154.831 7.20495C155.566 6.49326 157.182 5.91097 158.425 5.91097C160.371 5.91097 160.683 6.1809 160.683 7.86793C160.683 10.6215 157.346 13.1558 150.938 15.27C144.363 17.4392 143.584 17.4698 145.161 15.4954C145.84 14.6453 146.396 13.7061 146.396 13.4084C146.396 12.6605 142.943 12.7308 140.553 13.5273L138.575 14.1862L139.755 11.7123C140.403 10.3522 140.737 9.06591 140.495 8.85511C139.735 8.18865 134.242 9.95499 130.357 12.1144C127.107 13.9211 124.294 16.651 121.395 20.8098C120.807 21.6529 118.867 22.0634 113.919 22.3904L107.237 22.8321L108.561 21.1736C110.954 18.1801 109.808 15.3097 105.713 14.0366C103.709 13.4132 100.584 14.6383 99.9897 16.2802C99.3056 18.1703 100.848 20.5204 102.772 20.5204C104.839 20.5204 104.772 19.392 102.675 18.9119C100.749 18.4702 100.864 16.5285 102.88 15.4147C103.823 14.8944 104.8 14.9187 106.253 15.4996C108.826 16.5264 108.984 19.225 106.596 21.3183C104.972 22.741 104.41 22.7911 94.8887 22.3716C89.3869 22.1288 83.8653 21.6808 82.6184 21.3761C80.4286 20.8404 80.4977 20.7806 84.659 19.6313C89.5163 18.2893 93.2775 15.4231 91.837 14.1604C90.7013 13.1649 80.9652 12.5471 76.2261 13.1698C73.8919 13.4766 71.2854 14.5131 68.9948 16.0464L65.4129 18.443L60.2834 17.3133L55.153 16.1842L56.7253 14.4317C58.6849 12.2487 58.6833 11.8146 56.7102 10.0851C53.8291 7.55974 47.7908 8.92537 49.0567 11.8153C49.6956 13.2755 51.2767 13.1405 50.991 11.6504C50.6711 9.98142 55.0141 9.97099 56.2134 11.6372C57.242 13.0661 55.5308 14.9632 53.0712 15.1218C51.8949 15.1977 35.2363 11.5279 28.194 9.64123C27.5162 9.45966 28.4091 8.75284 30.4187 7.88115C33.8347 6.40003 37.9754 2.04921 37.1221 0.838721C36.3737 -0.222896 26.7122 0.94029 23.189 2.51602C21.2151 3.39884 19.6841 4.70325 19.1405 5.96662C18.2904 7.94028 18.1103 7.99802 12.8053 7.99802C4.76132 7.99802 -0.384919 10.7606 0.478607 14.6161C0.907195 16.5292 4.64545 18.6594 6.61299 18.1119C8.70036 17.531 8.86227 16.3469 6.78917 16.8221C3.40094 17.5985 0.628631 14.2815 2.5533 11.7547C4.53513 9.15356 12.9331 8.64014 23.2105 10.4921C29.5623 11.6365 31.7973 12.7857 32.991 15.5219C34.5054 18.9947 30.0544 21.3754 27.8392 18.2782C27.1678 17.339 27.3059 16.8722 28.4742 16.1236C29.5448 15.437 29.698 15.0224 29.0171 14.6536C27.9218 14.0602 25.7566 15.4099 25.7566 16.6857C25.7566 18.1599 28.9694 21.2161 30.5195 21.2161C31.3298 21.2161 32.5537 20.7242 33.2402 20.1231C34.622 18.9112 34.9379 14.5855 33.6934 13.9114C33.2569 13.6748 32.8997 13.2143 32.8997 12.888C32.8997 12.5617 35.4459 12.9729 38.5571 13.8021L44.2153 15.3104L45.8987 19.321C47.7948 23.8367 51.4616 27.5718 55.98 29.5928C61.0485 31.8593 62.2398 31.4245 60.6985 27.8703C59.7881 25.7721 59.6976 25.7978 63.3343 27.1294C66.5558 28.3093 68.6155 28.4721 68.6155 27.5468C68.6155 27.2031 67.4495 25.4027 66.0241 23.5466L63.4319 20.1725L72.1751 21.7281C76.9833 22.5838 81.8723 23.2878 83.039 23.2934C84.2066 23.2989 86.2789 24.1275 87.6456 25.1355C89.6115 26.5861 90.0798 27.4195 89.8885 29.1357C89.6909 30.9209 89.2623 31.3425 87.4607 31.524C84.678 31.8044 83.5446 29.8036 85.7027 28.4199C87.1098 27.5176 87.1011 27.4772 85.4884 27.4772C83.1573 27.4772 82.362 29.9761 84.1439 31.7014C85.8892 33.3919 88.6131 33.4226 90.3187 31.7703C92.145 30.0019 91.9577 27.528 89.8465 25.5251L88.0607 23.8304L96.3134 24.2145C101.846 24.4719 104.798 24.9004 105.269 25.5161C105.656 26.0205 106.346 27.0083 106.803 27.7103C107.26 28.4122 108.843 29.4293 110.322 29.9713C113.187 31.0204 124.173 31.3452 124.173 30.381C124.173 28.9396 118.681 25.6566 114.712 24.7265C113.243 24.3821 114.63 24.0231 119.825 23.4012C123.744 22.9316 128.997 22.1872 131.497 21.7462C135.386 21.0602 136.446 21.1117 138.818 22.1038C143.083 23.8861 143.564 28.1159 139.508 28.1625C137.849 28.1813 135.882 25.9801 136.821 25.1564C138.121 24.0176 137.822 23.0193 136.475 23.9988C133.759 25.9752 135.682 28.8686 139.712 28.8686C144.675 28.8686 145.337 24.7154 140.837 21.7997L138.475 20.2692L144.363 18.642L150.25 17.0155L153.165 18.7492C156.97 21.0129 160.975 21.6223 165.33 20.6011C168.89 19.7663 173.382 17.4155 173.382 16.3866C173.382 16.0784 169.936 15.412 165.726 14.9048L158.07 13.9837L161.426 12.7343C166.661 10.7849 173.618 9.3894 178.096 9.3894C181.406 9.3894 182.564 9.72263 184.182 11.1404C186.504 13.1753 186.563 16.7671 184.295 18.0117C182.518 18.9871 180.128 17.7884 180.128 15.9226C180.128 14.9097 180.645 14.639 182.374 14.7455C184.253 14.8617 184.465 14.7197 183.666 13.8759C182.427 12.568 180.946 12.5972 179.391 13.9608C177.719 15.4266 177.82 16.7581 179.731 18.4333C181.752 20.2045 184.06 20.2045 186.08 18.4333C188 16.7511 188.12 14.1201 186.386 11.8C185.681 10.8566 185.342 10.0851 185.632 10.0851C186.811 10.0851 191.408 12.4936 193.981 14.4596C198.621 18.0034 204.559 19.9791 210.882 20.0814C217.817 20.1941 218.447 19.2772 213.522 16.235ZM210.284 12.6772C208.84 13.0981 207.15 13.1294 206.002 12.7572C203.476 11.9384 203.889 11.7533 209.484 11.1996C214.364 10.7175 214.724 11.3832 210.284 12.6772ZM209.492 18.9286C205.547 18.5718 195.695 15.3375 196.476 14.6557C196.84 14.3378 213.832 18.6378 213.848 19.0525C213.855 19.2014 211.894 19.1457 209.492 18.9286ZM203.52 15.2499C198.512 13.9246 194.057 12.6939 193.62 12.5151C192.311 11.9787 201.312 12.9242 204.732 13.6825C207.781 14.3587 213.43 16.9543 212.887 17.4301C212.743 17.5561 208.528 16.5751 203.52 15.2499ZM200.502 11.0737C195.694 11.4257 194.732 11.3491 195.923 10.7091C196.752 10.2632 200.681 9.79151 204.653 9.66072C213.151 9.38175 210.285 10.3571 200.502 11.0737ZM185.725 6.98441C184.203 7.54166 181.784 7.98064 180.352 7.95907C178.211 7.92707 178.879 7.55836 184.096 5.8908C187.588 4.77492 190.793 3.85313 191.218 3.8427C192.391 3.81418 188.85 5.84001 185.725 6.98441ZM180.631 5.95341L174.785 7.91176L176.604 6.21499C178.579 4.37212 182.707 3.10597 186.477 3.18736C187.787 3.21519 188.323 3.40859 187.668 3.6166C187.013 3.82461 183.846 4.87649 180.631 5.95341ZM162.137 17.7272C156.108 17.739 153.57 17.1978 155.259 16.26C156.51 15.5643 162.219 15.4864 166.498 16.1056C171.019 16.7609 168.454 17.714 162.137 17.7272ZM161.722 19.8143C159.456 19.8198 157.439 19.5902 157.24 19.3029C157.04 19.0156 159.324 18.7714 162.314 18.7603C165.305 18.7485 167.323 18.9787 166.797 19.2709C166.272 19.5638 163.988 19.808 161.722 19.8143ZM142.77 15.6506C143.781 15.6506 141.551 17.7362 139.715 18.5078C138.688 18.9398 138.964 18.5314 140.444 17.4301C143.018 15.5135 142.662 15.0516 139.821 16.6217C138.854 17.156 137.173 17.8274 136.085 18.1133C134.29 18.5857 134.21 18.5244 135.228 17.4496C136.342 16.2732 139.625 14.8512 143.291 13.958C145.137 13.5086 145.15 13.5301 143.665 14.5709C142.818 15.165 142.415 15.6506 142.77 15.6506ZM136.801 14.0129C135.009 16.5529 129.756 20.0369 126.554 20.807C124.922 21.2001 125.243 20.7305 128.365 18.1606C133.266 14.1263 138.46 10.5261 138.46 11.162C138.46 11.4361 137.713 12.719 136.801 14.0129ZM127.827 17.099C125.253 19.1721 123.546 20.2004 124.034 19.385C125.132 17.5519 132.752 11.4765 133.953 11.4765C134.452 11.4765 134.33 11.8765 133.669 12.4031C133.03 12.913 130.4 15.0258 127.827 17.099ZM115.057 28.1764C109.597 26.584 107.79 25.3902 110.838 25.3902C113.475 25.3902 117.686 26.5429 120.087 27.9218C123.263 29.7452 120.854 29.8669 115.057 28.1764ZM110.735 28.5451C107.277 26.9777 107.717 26.6681 111.438 28.0505C113.163 28.6919 114.259 29.3138 113.873 29.4328C113.486 29.5518 112.074 29.1524 110.735 28.5451ZM76.7507 19.6835C73.0363 19.8629 70.2028 19.7224 70.2028 19.3593C70.2028 18.7311 86.7043 15.6193 89.7028 15.6833C90.6402 15.7027 89.6941 16.4249 87.267 17.5414C84.2034 18.9516 81.8057 19.44 76.7507 19.6835ZM75.3649 16.6857C72.3108 17.2033 69.6901 17.5199 69.5417 17.3898C69.3933 17.2597 70.2679 16.58 71.4854 15.8801C73.1879 14.9013 75.4499 14.5771 81.2771 14.4783C89.5679 14.3371 89.8552 14.23 75.3649 16.6857ZM61.4723 22.8579C58.4166 20.6546 55.9165 18.7512 55.9165 18.6281C55.9165 18.5057 57.2896 19.0191 58.9682 19.7697C61.6295 20.9593 67.0281 25.4674 67.0281 26.4991C67.0281 26.6994 64.528 25.0611 61.4723 22.8579ZM60.8699 25.1293C59.5849 24.5463 57.9198 23.2488 57.169 22.245C55.9523 20.6164 56.2356 20.7019 59.808 23.0401C64.1319 25.8695 64.6193 26.8288 60.8699 25.1293ZM57.0698 26.7509C54.2935 24.4642 48.467 17.7745 48.9123 17.3842C49.4647 16.9 55.8562 22.4871 57.5722 24.954C59.6746 27.9767 59.4659 28.7239 57.0698 26.7509ZM56.5118 28.4588C52.899 26.6688 50.0726 24.1491 48.3647 21.1959C45.5749 16.3692 45.8931 16.3226 49.8893 20.9733C51.8132 23.2113 54.3133 25.8013 55.4451 26.7287C57.6682 28.55 58.096 29.2443 56.5118 28.4588ZM29.5679 7.02545C28.3885 7.56044 26.2439 7.97089 24.8042 7.93819C22.3771 7.88254 22.593 7.70583 27.7408 5.53042C30.7965 4.23854 33.6196 3.16996 34.0149 3.15535C35.1808 3.11153 31.8965 5.9701 29.5679 7.02545ZM20.4072 7.01989C19.8572 6.53778 24.9383 3.20823 27.2638 2.52715C33.1553 0.801154 32.9736 1.92608 26.9471 4.48759C23.4549 5.97219 20.512 7.11102 20.4072 7.01989Z" fill="#5A8CC1"/>
</svg>
