<svg width="38" height="36" viewBox="0 0 38 36" fill="none" xmlns="http://www.w3.org/2000/svg">
<path fill-rule="evenodd" clip-rule="evenodd" d="M20.1263 34.9906C27.5752 34.9891 34.1265 30.0644 36.1981 22.9093C38.2697 15.7542 35.3628 8.09116 29.0668 4.11017C22.7709 0.12918 14.6016 0.78862 9.02574 5.72793C3.44987 10.6672 1.80975 18.6973 5.00217 25.4275L1 34.9906L11.5003 32.5998C14.1036 34.1689 17.0867 34.9957 20.1263 34.9906Z" stroke="#5A8CC1" stroke-width="1.5" stroke-linecap="round" stroke-linejoin="round"/>
<path fill-rule="evenodd" clip-rule="evenodd" d="M15.4428 16.0223C14.0817 16.0104 12.9868 14.8995 12.9947 13.5384C13.0026 12.1772 14.1103 11.0791 15.4714 11.083C16.8326 11.0869 17.9339 12.1914 17.934 13.5526C17.9274 14.9222 16.8124 16.0276 15.4428 16.0223V16.0223Z" stroke="#5A8CC1" stroke-width="1.5" stroke-linecap="round" stroke-linejoin="round"/>
<path fill-rule="evenodd" clip-rule="evenodd" d="M22.3184 22.8408C22.3107 23.8489 22.9119 24.7621 23.8409 25.1535C24.77 25.5449 25.8434 25.3371 26.5594 24.6274C27.2753 23.9176 27.4924 22.846 27.109 21.9136C26.7257 20.9812 25.8178 20.3721 24.8096 20.3711C23.44 20.3658 22.325 21.4712 22.3184 22.8408V22.8408Z" stroke="#5A8CC1" stroke-width="1.5" stroke-linecap="round" stroke-linejoin="round"/>
<path d="M12.954 13.5527C12.9205 21.8416 20.8435 26.2167 24.8098 25.3106" stroke="#5A8CC1" stroke-width="1.5" stroke-linecap="round"/>
</svg>
