<svg width="49" height="36" viewBox="0 0 49 36" fill="none" xmlns="http://www.w3.org/2000/svg">
<path fill-rule="evenodd" clip-rule="evenodd" d="M37.823 34.429C43.2387 34.6261 47.7926 30.4034 48.004 24.9882V10.9669C47.7926 5.55174 43.2387 1.329 37.823 1.52616H11.1811C5.76535 1.329 1.21147 5.55174 1 10.9669V24.9882C1.21147 30.4034 5.76535 34.6261 11.1811 34.429H37.823Z" stroke="#5A8CC1" stroke-width="1.5" stroke-linecap="round" stroke-linejoin="round"/>
<path fill-rule="evenodd" clip-rule="evenodd" d="M23.3456 11.3384L30.7746 16.3866C31.2559 16.6677 31.5518 17.1831 31.5518 17.7404C31.5518 18.2977 31.2559 18.8131 30.7746 19.0941L23.3456 24.617C21.9355 25.5736 19.8015 24.7581 19.8015 23.2633V12.6874C19.8015 11.1997 21.9378 10.3819 23.3456 11.3384Z" stroke="#5A8CC1" stroke-width="1.5" stroke-linecap="round" stroke-linejoin="round"/>
</svg>
